# xmcd CD database file
#
# Track frame offsets:
#	150
#	20605
#	44870
#	65310
#
# Disc length: 1190 seconds
#
# Revision: 0
# Processed by: cddbd v1.5.1PL0 Copyright (c) Steve Scherf et al.
# Submitted via: CDex 1.51
#
DISCID=3404a404
DTITLE=rough laugh - flowers
DYEAR=1997
DGENRE=J-POP
TTITLE0=flowers
TTITLE1=special wish〜だんだんアナタを好きになる〜
TTITLE2=flowers(カラオケ)
TTITLE3=special wish(カラオケ)
EXTD=YEAR: 1997
EXTT0=
EXTT1=
EXTT2=
EXTT3=
PLAYORDER=
